<svg xmlns="http://www.w3.org/2000/svg" width="1387" height="756" viewBox="0 0 1387 756">
<g>

<path d="M 679.50 448.85 C628.93,423.20 590.87,388.76 572.55,352.05 C567.63,342.20 564.90,334.60 561.83,322.26 C559.71,313.71 559.65,311.61 559.27,234.40 L 558.89 155.30 L 568.70 154.74 C569.02,154.72 569.35,154.70 569.67,154.68 C565.40,155.05 562.00,155.58 562.00,155.90 C562.00,156.23 566.84,156.47 572.75,156.43 C586.02,156.35 587.26,156.23 586.55,155.09 C586.24,154.58 586.55,153.91 587.24,153.58 C587.93,153.26 586.25,153.21 583.50,153.48 C581.67,153.66 578.43,153.95 575.13,154.23 C578.48,153.89 581.48,153.48 583.00,153.12 C585.47,152.54 592.37,151.13 598.32,150.00 C609.29,147.90 622.63,143.75 636.19,138.42 C624.23,143.22 612.70,147.07 603.75,149.05 C598.50,150.21 598.20,150.42 600.25,151.45 C601.77,152.22 602.49,153.47 602.46,155.30 C602.42,157.94 602.56,158.00 608.46,158.02 C611.78,158.02 615.17,158.47 616.00,159.00 C616.83,159.53 617.14,159.98 616.69,159.98 C616.25,159.99 616.14,160.42 616.45,160.93 C616.92,161.67 626.19,158.92 636.39,155.23 C627.50,158.50 618.54,161.31 609.76,163.55 C607.07,164.23 602.92,165.14 598.42,166.06 C604.64,164.77 610.30,163.17 611.38,162.38 C613.39,160.89 613.40,160.84 611.50,161.31 C604.70,163.01 603.81,163.00 601.20,161.19 C597.14,158.38 590.11,156.86 586.00,157.91 C584.08,158.40 583.24,158.84 584.14,158.90 C586.05,159.02 587.37,161.66 585.96,162.53 C585.43,162.85 585.00,162.57 585.00,161.90 C585.00,161.17 584.17,161.44 582.90,162.60 C581.74,163.64 580.50,164.44 580.15,164.37 C578.97,164.13 576.00,166.67 576.67,167.34 C577.04,167.70 576.78,168.00 576.11,168.00 C575.43,168.00 575.16,168.45 575.50,169.00 C576.22,170.17 579.79,169.73 596.88,166.37 C587.72,168.21 577.68,170.00 575.85,170.00 C575.26,170.00 575.03,196.89 575.23,241.75 L 575.56 313.50 L 578.23 323.29 C581.27,334.40 589.73,352.51 596.16,361.67 C610.93,382.68 634.10,403.63 661.50,420.76 C671.80,427.20 691.90,437.94 693.72,437.98 C694.40,437.99 698.00,436.51 701.72,434.69 C711.05,430.13 720.72,424.56 730.09,418.47 C723.18,423.11 716.88,427.05 713.19,428.92 C710.82,430.12 707.52,431.93 705.85,432.94 L 702.82 434.79 L 707.13 434.65 C710.58,434.53 711.68,434.03 712.62,432.14 C713.27,430.84 715.66,428.67 717.94,427.31 C721.47,425.20 722.33,425.03 723.70,426.17 C724.58,426.90 725.48,427.36 725.70,427.20 C725.91,427.03 727.35,427.96 728.89,429.25 C731.08,431.10 731.52,432.07 730.89,433.76 C730.16,435.75 730.30,435.84 732.72,434.92 C733.55,434.60 735.71,433.33 738.41,431.62 C735.35,433.62 732.21,435.59 729.00,437.53 C726.69,438.93 723.05,440.98 718.96,443.21 C718.99,443.14 719.00,443.07 719.00,443.00 C719.00,442.45 719.60,442.00 720.34,442.00 C721.08,442.00 723.00,440.83 724.59,439.40 C726.75,437.48 726.93,437.09 725.31,437.91 C723.86,438.63 722.91,438.67 722.50,438.00 C721.56,436.49 717.73,438.86 718.38,440.55 C718.68,441.32 718.15,442.40 717.21,442.94 C715.61,443.88 715.61,443.94 717.25,443.97 C717.37,443.97 717.48,443.97 717.59,443.96 C707.21,449.59 694.70,456.02 693.91,455.98 C693.69,455.96 687.20,452.76 679.50,448.85 ZM 249.00 500.00 L 299.00 500.00 L 299.00 512.00 L 264.91 512.00 L 265.50 525.50 L 295.00 526.05 L 295.00 538.00 L 264.91 538.00 L 265.21 545.25 L 265.50 552.50 L 301.00 553.05 L 301.00 565.00 L 249.00 565.00 ZM 465.65 556.75 C465.30,552.21 465.01,537.59 465.01,524.25 L 465.00 500.00 L 515.00 500.00 L 515.00 512.00 L 480.91 512.00 L 481.50 525.50 L 511.00 526.05 L 511.00 538.00 L 480.91 538.00 L 481.21 545.25 L 481.50 552.50 L 499.00 552.25 L 516.50 551.99 L 516.50 565.00 L 466.30 565.00 ZM 415.70 563.75 C415.42,563.06 409.11,548.44 401.69,531.25 L 388.20 500.00 L 404.74 500.00 L 407.48 506.25 C408.99,509.69 413.14,519.47 416.70,528.00 C420.26,536.53 423.51,543.86 423.93,544.29 C424.74,545.14 425.95,542.57 436.59,517.50 C440.33,508.70 443.86,501.17 444.44,500.77 C445.80,499.82 459.00,499.77 459.00,500.70 C459.00,501.09 452.84,515.72 445.32,533.20 L 431.64 565.00 L 423.93 565.00 C418.70,565.00 416.05,564.60 415.70,563.75 ZM 312.00 500.00 L 328.00 500.00 L 328.00 552.00 L 361.00 552.00 L 361.00 565.00 L 312.00 565.00 ZM 561.34 546.95 L 571.98 559.97 L 562.86 548.95 C555.51,540.08 548.27,531.40 546.78,529.66 L 544.05 526.50 L 544.03 545.75 L 544.00 565.00 L 528.00 565.00 L 528.00 519.03 C528.00,524.51 528.35,529.00 528.78,529.00 C529.95,529.00 534.39,525.80 535.31,524.30 C536.43,522.45 542.66,520.00 546.23,520.00 C548.52,520.00 549.07,519.64 548.62,518.45 C548.29,517.59 548.38,517.11 548.81,517.38 C549.24,517.65 550.24,517.47 551.04,516.98 C552.05,516.35 553.31,516.88 555.24,518.73 C556.76,520.18 558.00,520.86 558.00,520.22 C558.00,520.08 557.95,519.92 557.87,519.75 C565.53,528.99 572.05,536.43 572.97,536.97 C572.24,536.65 569.66,533.98 566.97,530.75 C561.70,524.42 558.55,521.67 559.55,524.27 C560.11,525.72 555.36,531.26 552.68,532.29 C551.60,532.71 550.04,531.70 547.92,529.20 C546.19,527.17 545.16,526.24 545.64,527.15 C546.11,528.06 553.18,536.97 561.34,546.95 ZM 476.67 646.33 C476.30,645.97 476.00,634.94 476.00,621.83 L 476.00 598.00 L 509.50 598.00 L 509.50 603.00 L 480.92 603.00 L 481.50 619.50 L 493.75 619.78 C505.11,620.04 506.00,620.20 506.00,622.00 C506.00,623.80 505.11,623.96 493.75,624.22 L 481.50 624.50 L 480.92 642.00 L 511.00 642.00 L 511.00 647.00 L 494.17 647.00 C484.91,647.00 477.03,646.70 476.67,646.33 ZM 427.10 645.35 C421.17,642.77 417.13,638.97 414.41,633.42 C412.13,628.74 411.83,627.05 412.16,620.58 C412.48,614.25 412.99,612.48 415.55,608.84 C420.24,602.16 426.53,598.79 435.37,598.23 C443.59,597.70 448.38,598.88 452.52,602.43 C457.33,606.57 453.12,608.72 447.50,605.00 C444.11,602.75 434.16,602.24 429.32,604.06 C425.11,605.64 419.11,611.95 417.99,615.97 C412.98,634.01 431.24,648.75 447.41,639.71 C451.14,637.62 452.60,637.25 453.64,638.12 C455.85,639.95 455.28,640.80 449.75,643.97 C445.23,646.56 443.53,646.97 437.50,646.91 C433.65,646.87 428.97,646.17 427.10,645.35 ZM 532.12 629.00 L 532.11 635.41 C532.05,631.47 532.03,626.75 532.06,621.72 L 532.18 597.84 L 544.84 598.17 C558.29,598.52 563.13,599.90 566.98,604.92 C565.78,603.45 564.24,602.29 562.41,601.53 C557.79,599.60 556.65,599.62 560.25,601.57 C561.76,602.39 562.99,603.61 562.98,604.28 C562.98,605.04 562.69,605.12 562.23,604.50 C561.83,603.95 560.67,603.36 559.66,603.19 C558.37,602.96 558.81,603.75 561.16,605.85 C563.07,607.56 563.90,608.52 564.25,610.23 C564.10,609.81 563.92,609.40 563.72,609.00 C561.58,604.71 556.61,603.00 546.25,603.00 L 537.00 603.00 L 537.00 614.33 C537.00,620.57 537.30,625.97 537.67,626.33 C537.77,626.43 537.97,626.52 538.28,626.59 C535.07,625.95 534.02,624.69 533.93,622.32 C533.89,621.32 533.47,619.60 533.00,618.50 C532.46,617.24 532.13,621.13 532.12,629.00 ZM 556.23 625.95 C560.13,624.87 563.01,621.84 564.26,618.24 C564.10,619.70 563.88,620.91 563.64,621.50 C563.07,622.88 563.11,623.08 563.78,622.14 C564.50,621.14 564.94,621.09 565.47,621.96 C565.87,622.60 565.36,624.08 564.35,625.24 L 562.50 627.36 L 565.18 625.43 C566.18,624.72 566.99,623.97 567.65,623.13 C566.48,625.08 564.90,626.72 562.99,627.81 C561.35,628.74 560.01,629.79 560.01,630.14 C560.00,630.50 562.47,634.23 565.48,638.43 C566.36,639.65 567.09,640.69 567.69,641.58 C566.85,640.62 565.99,639.82 565.36,639.58 C564.63,639.30 564.07,639.39 564.13,639.79 C564.43,641.77 563.83,642.11 562.25,640.87 C560.63,639.60 560.61,639.65 561.96,641.50 C562.46,642.20 563.18,643.14 563.84,643.97 C562.67,642.62 561.27,640.75 559.50,638.23 C554.71,631.41 554.33,631.11 550.39,631.06 C548.47,631.03 545.35,631.21 542.89,631.48 C542.96,631.35 543.00,631.19 543.00,631.00 C543.00,630.45 543.70,630.00 544.56,630.00 C545.42,630.00 545.86,629.58 545.53,629.06 C545.21,628.53 547.07,627.94 549.73,627.74 C552.58,627.51 550.95,627.29 545.68,627.18 C543.08,627.13 541.02,627.01 539.40,626.78 C543.38,627.24 552.86,626.89 556.23,625.95 ZM 686.79 399.25 C687.29,406.84 687.35,407.00 689.90,406.86 C692.25,406.74 692.29,406.69 690.25,406.29 C688.52,405.96 688.00,405.18 688.00,402.87 C688.00,401.13 688.42,400.14 689.00,400.50 C689.55,400.84 690.00,400.69 690.00,400.17 C690.00,398.34 693.05,398.06 694.97,399.71 C696.03,400.62 697.83,401.50 698.95,401.67 C700.90,401.97 701.00,401.50 701.00,391.99 L 701.00 408.00 L 686.33 408.00 L 686.16 348.41 C686.31,374.76 686.56,395.88 686.79,399.25 ZM 654.27 638.99 C654.52,638.01 654.24,637.64 653.50,637.36 C652.68,637.05 651.98,636.05 651.95,635.14 C651.92,634.01 650.07,636.90 648.49,640.13 C650.86,634.64 654.81,625.91 659.76,615.25 C660.12,614.48 660.46,613.74 660.78,613.04 C656.90,621.61 655.06,626.67 656.81,624.14 C657.47,623.20 657.96,623.12 658.43,623.89 C659.61,625.80 660.53,625.11 663.39,618.92 C661.15,624.04 659.34,628.73 659.64,629.22 C660.10,629.98 671.94,630.18 677.94,629.80 C675.71,629.97 672.58,630.11 669.19,630.15 C662.76,630.23 658.85,630.51 660.50,630.77 C663.15,631.18 663.26,631.33 661.50,632.05 C660.27,632.55 663.33,632.89 669.50,632.94 C676.41,633.00 679.94,633.10 682.16,634.00 L 656.45 634.00 ZM 711.15 389.27 L 711.01 395.50 L 710.50 395.50 L 709.90 383.00 L 701.00 383.00 L 701.00 382.00 L 705.75 381.93 C709.18,381.88 709.94,381.64 708.50,381.06 C707.07,380.48 708.21,380.14 712.50,379.86 C716.47,379.60 718.95,379.89 719.82,380.73 C722.28,383.09 723.00,382.02 723.00,376.00 L 723.00 382.00 L 742.42 382.00 L 740.30 382.35 C738.21,382.70 733.35,383.01 729.50,383.06 C724.65,383.12 723.12,383.40 724.50,384.00 C725.98,384.63 725.15,384.88 721.36,384.93 C717.46,384.98 716.05,385.42 715.55,386.72 C714.99,388.20 714.76,388.23 713.96,386.97 C713.26,385.86 712.99,386.23 712.87,388.50 C712.74,390.84 712.54,390.50 712.00,387.00 C711.34,382.73 711.29,382.85 711.15,389.27 ZM 528.00 501.25 L 531.12 500.62 C532.84,500.28 535.90,500.00 537.91,500.00 C538.49,500.00 538.99,500.02 539.49,500.12 C539.27,500.33 539.70,500.80 540.78,501.56 C543.48,503.45 543.69,506.00 541.13,506.00 C540.11,506.00 538.06,506.95 536.58,508.11 C534.64,509.64 533.08,510.07 530.95,509.64 L 528.00 509.05 ZM 542.00 561.56 C542.00,562.90 542.45,564.00 543.00,564.00 C543.63,564.00 544.00,557.33 544.00,546.00 C544.00,534.67 543.63,528.00 543.00,528.00 C542.45,528.00 541.92,530.81 541.82,534.25 C541.57,542.90 541.14,548.78 540.42,553.63 C540.05,556.19 540.23,558.02 540.91,558.44 C541.51,558.81 542.00,560.22 542.00,561.56 ZM 592.68 646.25 C592.44,645.84 592.16,635.04 592.06,622.25 L 591.88 599.00 L 592.00 599.00 L 592.00 602.88 C592.00,605.87 592.44,606.88 593.92,607.27 C595.35,607.64 596.74,607.07 597.47,606.01 C597.16,607.82 597.18,612.91 597.54,617.73 L 597.82 621.38 C597.60,620.43 597.17,620.00 596.50,620.00 C595.67,620.00 595.00,620.45 595.00,621.00 C595.00,621.55 594.44,621.89 593.75,621.75 C592.81,621.56 592.48,624.47 592.41,633.50 C592.35,640.10 592.49,645.84 592.71,646.25 C592.92,646.64 593.81,646.96 594.74,647.00 C593.81,646.96 592.91,646.64 592.68,646.25 ZM 528.00 549.50 C528.00,555.36 528.31,557.00 529.44,557.00 C531.23,557.00 531.95,555.89 532.21,552.70 C532.33,551.29 532.92,550.41 533.58,550.67 C535.55,551.42 533.90,545.75 531.59,543.82 C530.44,542.85 529.16,542.05 528.75,542.03 C528.34,542.01 528.00,545.38 528.00,549.50 ZM 532.63 646.30 C532.48,646.14 532.34,644.21 532.24,641.08 L 534.30 634.69 C536.38,628.25 536.58,627.99 537.97,629.94 C538.60,630.83 539.59,631.47 540.52,631.79 L 537.00 632.27 L 537.00 639.64 C537.00,646.11 536.78,647.00 535.17,647.00 C534.16,647.00 533.02,646.68 532.63,646.30 ZM 701.49 346.17 C701.34,345.66 701.27,344.96 701.18,344.00 C700.85,340.41 699.00,337.20 699.00,340.21 C699.00,342.33 696.11,341.87 694.36,339.48 C692.55,337.00 692.64,336.26 694.93,335.04 C696.37,334.27 697.23,334.38 698.33,335.48 C699.63,336.77 699.88,336.76 700.40,335.39 C700.73,334.54 701.00,317.54 701.00,297.62 L 701.00 264.87 L 701.24 304.46 ZM 720.44 370.00 L 712.00 370.00 C704.92,370.00 701.00,370.38 701.00,371.06 C701.00,371.64 700.44,371.78 699.75,371.37 C698.90,370.86 698.94,371.16 699.87,372.31 C701.10,373.82 700.97,373.97 698.63,373.78 C696.54,373.61 695.89,372.91 695.41,370.38 C694.44,365.20 695.18,363.47 698.27,363.70 C700.06,363.84 700.93,363.45 701.00,362.51 L 701.19 365.19 L 701.50 369.50 L 712.25 369.78 ZM 718.81 351.23 C718.58,352.72 717.62,353.38 715.30,353.63 C712.11,353.97 710.37,352.82 711.45,351.09 C711.76,350.58 711.45,349.94 710.76,349.66 C709.76,349.26 709.76,349.14 710.75,349.08 C711.52,349.03 712.06,347.35 712.15,344.75 L 712.30 340.50 L 713.00 345.00 C713.46,347.98 713.79,348.66 713.97,347.00 C714.15,345.27 714.37,345.02 714.68,346.20 C714.93,347.14 716.03,348.19 717.12,348.54 C718.43,348.95 719.01,349.88 718.81,351.23 ZM 689.90 383.00 C689.77,381.26 689.50,381.71 689.00,384.50 C688.40,387.86 688.26,387.31 688.16,381.00 C688.08,376.45 688.37,374.04 688.89,374.86 C689.62,376.01 689.83,376.01 690.25,374.86 C690.58,373.95 691.13,374.32 691.92,376.01 C692.87,378.02 692.80,379.22 691.59,382.01 C690.19,385.25 690.07,385.32 689.90,383.00 ZM 586.93 513.25 C586.97,518.06 586.78,522.00 586.50,522.00 C586.22,522.00 585.95,519.19 585.88,515.75 C585.79,511.12 585.59,510.28 585.09,512.50 C584.45,515.38 584.40,515.40 583.78,513.15 C583.43,511.86 583.53,509.84 584.00,508.65 C584.48,507.47 584.93,506.95 585.01,507.50 C585.08,508.05 585.53,507.60 586.00,506.50 C586.57,505.17 586.88,507.43 586.93,513.25 ZM 489.50 500.91 C496.11,501.69 512.80,501.53 513.66,500.68 C514.03,500.30 507.62,500.07 499.42,500.16 C490.54,500.25 486.53,500.55 489.50,500.91 ZM 552.06 512.72 C553.46,514.41 555.05,516.33 556.84,518.50 L 556.99 518.68 C556.70,518.43 556.36,518.19 556.00,518.00 C554.90,517.41 554.00,516.48 554.00,515.93 C554.00,515.49 553.23,514.28 552.06,512.72 ZM 789.23 364.31 C801.77,346.49 809.69,327.94 811.66,311.25 C809.65,328.28 801.65,346.81 789.23,364.31 ZM 603.04 603.02 C608.42,602.69 616.51,603.21 618.99,604.49 C619.41,604.71 619.80,604.94 620.18,605.18 C617.31,603.67 613.06,603.00 607.16,603.00 C605.50,603.00 604.14,603.00 603.04,603.02 ZM 567.95 606.29 C569.91,609.37 570.48,613.28 569.87,617.00 C569.96,616.15 570.00,615.22 570.00,614.20 C569.99,611.17 569.28,608.47 567.95,606.29 ZM 618.84 625.08 C623.12,622.90 625.00,619.57 625.00,614.18 C625.00,619.81 623.05,623.35 618.50,625.25 C618.61,625.20 618.73,625.14 618.84,625.08 ZM 751.46 403.22 C756.02,399.64 760.34,396.03 764.31,392.44 C761.97,394.59 759.57,396.70 757.10,398.75 C755.46,400.10 753.55,401.61 751.46,403.22 ZM 754.03 420.77 C769.07,409.55 781.90,397.78 792.44,385.54 C781.86,397.85 769.00,409.64 754.03,420.77 ZM 661.64 144.59 C669.80,140.64 678.19,136.15 684.91,132.09 C677.57,136.52 669.75,140.72 661.64,144.59 ZM 665.10 615.09 L 665.13 615.02 C667.53,609.53 669.95,605.04 670.50,605.03 C670.85,605.02 672.05,607.13 673.52,610.11 C672.05,607.13 670.85,605.02 670.50,605.03 C669.95,605.04 667.52,609.80 665.10,615.09 ZM 598.00 623.83 L 598.24 627.00 L 598.00 627.00 ZM 646.00 646.42 C646.00,646.24 646.20,645.65 646.59,644.66 C646.58,644.69 646.57,644.72 646.56,644.75 C646.16,646.06 646.16,646.63 646.85,646.86 C646.33,646.75 646.00,646.60 646.00,646.42 ZM 648.30 647.00 C649.56,646.98 650.46,646.44 651.47,644.90 C650.45,646.56 649.64,647.00 648.39,647.00 C648.36,647.00 648.33,647.00 648.30,647.00 ZM 743.50 395.50 L 743.80 388.61 L 744.09 382.00 L 744.09 382.00 L 743.80 388.75 ZM 573.06 537.00 C573.21,536.96 573.35,536.41 573.47,535.40 C573.35,536.43 573.22,537.00 573.09,537.00 C573.08,537.00 573.07,537.00 573.06,537.00 ZM 598.00 604.28 C598.01,604.15 598.10,604.03 598.25,603.92 C598.15,604.02 598.07,604.14 598.00,604.28 ZM 576.22 565.09 L 582.34 564.80 L 576.23 565.09 L 576.22 565.09 ZM 694.95 646.50 C694.98,646.44 695.01,646.37 695.01,646.29 C695.01,646.30 695.02,646.31 695.02,646.32 C695.01,646.38 694.99,646.44 694.95,646.50 Z" fill="rgb(181,151,82)"/>
<path d="M 714.50 646.17 C709.87,643.99 706.51,640.60 707.46,639.06 C708.45,637.46 709.74,637.75 713.79,640.50 C718.02,643.38 720.89,643.63 725.05,641.47 C726.67,640.64 728.08,639.85 728.18,639.72 C728.28,639.60 728.62,631.29 728.93,621.25 L 729.50 603.00 L 720.25 603.00 C711.67,603.00 711.00,602.86 711.00,601.00 C711.00,599.11 711.67,599.00 723.00,599.00 L 735.00 599.00 L 734.98 617.25 C734.96,632.99 734.70,636.07 733.06,639.67 C729.75,646.97 721.98,649.69 714.50,646.17 ZM 952.73 646.95 C947.56,645.68 941.02,642.23 940.32,640.39 C939.10,637.22 941.63,636.90 946.79,639.58 C956.35,644.54 966.53,643.75 969.60,637.81 C972.84,631.54 969.85,628.22 958.01,624.94 C944.83,621.28 941.06,618.30 941.03,611.50 C940.98,602.29 948.35,597.33 960.75,598.21 C967.01,598.66 974.02,601.08 973.98,602.78 C973.98,603.17 973.55,604.16 973.04,604.96 C972.24,606.23 971.65,606.20 968.53,604.71 C961.53,601.38 948.33,603.08 946.62,607.54 C944.45,613.21 947.74,617.05 956.91,619.57 C967.19,622.40 970.92,624.12 973.58,627.28 C978.26,632.84 975.59,641.54 967.99,645.50 C964.44,647.35 957.17,648.04 952.73,646.95 ZM 564.86 645.25 C564.06,644.29 562.76,642.60 561.96,641.50 C560.61,639.65 560.63,639.60 562.25,640.87 C563.83,642.11 564.43,641.77 564.13,639.79 C564.07,639.39 564.63,639.30 565.36,639.58 C567.18,640.28 571.04,645.62 570.28,646.39 C569.10,647.57 566.30,646.98 564.86,645.25 ZM 592.71 646.25 C592.49,645.84 592.35,640.10 592.41,633.50 C592.48,624.47 592.81,621.56 593.75,621.75 C594.44,621.89 595.00,621.55 595.00,621.00 C595.00,620.45 595.67,620.00 596.50,620.00 C597.55,620.00 598.00,621.06 598.00,623.50 L 598.00 627.00 L 606.54 627.00 C619.79,627.00 625.00,623.38 625.00,614.18 C625.00,609.79 623.00,606.57 618.99,604.49 C615.17,602.52 598.00,602.36 598.00,604.30 C598.00,606.36 596.00,607.81 593.92,607.27 C592.44,606.88 592.00,605.87 592.00,602.88 L 592.00 599.00 L 605.25 599.00 C620.36,599.00 623.83,600.08 627.82,606.00 C629.83,608.99 630.12,610.44 629.78,615.91 C629.40,622.10 629.21,622.48 624.70,626.57 L 620.02 630.81 L 625.49 638.44 C629.99,644.71 630.68,646.19 629.35,646.70 C626.86,647.65 624.92,645.97 619.57,638.18 L 614.63 631.00 L 606.39 631.00 L 598.14 631.00 L 597.44 639.00 C596.85,645.80 596.47,647.00 594.93,647.00 C593.93,647.00 592.94,646.66 592.71,646.25 ZM 646.56 644.75 C647.79,640.77 651.91,633.44 651.95,635.14 C651.98,636.05 652.68,637.05 653.50,637.36 C654.78,637.85 654.68,638.60 652.80,642.47 C651.11,645.95 650.05,647.00 648.23,647.00 C646.24,647.00 645.97,646.65 646.56,644.75 ZM 690.24 645.75 C689.69,645.06 688.08,642.20 686.67,639.38 C683.62,633.31 682.94,633.06 669.50,632.94 C663.33,632.89 660.27,632.55 661.50,632.05 C663.26,631.33 663.15,631.18 660.50,630.77 C658.85,630.51 662.76,630.23 669.19,630.15 C675.62,630.07 681.09,629.66 681.35,629.25 C682.03,628.14 671.67,605.00 670.50,605.03 C669.95,605.04 667.53,609.53 665.13,615.02 C660.85,624.78 659.82,626.14 658.43,623.89 C657.96,623.12 657.47,623.20 656.81,624.14 C654.84,626.98 657.40,620.26 662.29,609.75 C667.13,599.35 667.40,599.00 670.51,599.00 L 673.72 599.00 L 684.38 622.25 C690.24,635.04 695.02,645.84 695.02,646.25 C694.99,647.48 691.32,647.10 690.24,645.75 ZM 760.00 623.02 L 760.00 599.00 L 773.88 599.00 C781.51,599.00 789.20,598.71 790.96,598.36 C793.92,597.77 794.15,597.90 793.84,600.11 C793.50,602.49 793.43,602.50 779.25,602.78 L 765.00 603.05 L 765.00 611.53 L 765.00 620.00 L 777.50 620.00 C789.27,620.00 790.00,620.12 790.00,621.97 C790.00,623.81 789.17,623.96 777.75,624.22 L 765.50 624.50 L 765.21 633.25 L 764.92 642.00 L 780.03 642.00 C795.13,642.00 795.14,642.00 794.82,644.25 C794.50,646.47 794.28,646.50 777.25,646.77 L 760.00 647.05 L 760.00 623.02 ZM 816.00 623.57 C816.00,610.61 816.01,599.66 816.02,599.25 C816.07,597.78 841.78,598.83 844.86,600.43 C849.43,602.79 852.81,607.52 853.57,612.64 C854.48,618.67 851.50,625.18 846.50,628.13 L 843.00 630.20 L 845.20 633.35 C846.41,635.08 848.87,638.47 850.68,640.87 C854.11,645.44 854.19,647.00 850.96,647.00 C849.70,647.00 847.11,644.24 843.37,638.89 C837.75,630.88 837.65,630.80 834.09,631.38 C832.12,631.71 828.38,631.98 825.79,631.99 L 821.09 632.00 L 820.79 639.25 C820.52,645.90 820.31,646.53 818.25,646.82 L 816.00 647.14 L 816.00 623.57 ZM 840.92 625.42 C845.90,623.42 848.00,620.26 848.00,614.76 C848.00,606.11 843.26,603.00 830.05,603.00 L 821.00 603.00 L 821.00 615.00 L 821.00 627.00 L 828.98 627.00 C833.93,627.00 838.46,626.40 840.92,625.42 ZM 886.44 644.63 C873.48,638.59 868.24,623.42 874.79,610.88 C884.97,591.40 915.44,594.50 921.59,615.66 C925.12,627.80 919.14,640.71 907.78,645.45 C902.11,647.81 892.49,647.44 886.44,644.63 ZM 903.28 641.94 C907.98,640.63 913.86,635.57 915.65,631.30 C917.65,626.50 917.36,617.62 915.04,613.09 C911.03,605.21 905.04,602.33 894.52,603.21 C885.18,603.98 878.73,610.40 877.38,620.27 C876.19,628.93 880.72,636.56 889.46,640.63 C895.05,643.24 897.70,643.49 903.28,641.94 ZM 532.12 629.00 C532.13,621.13 532.46,617.24 533.00,618.50 C533.47,619.60 533.89,621.32 533.93,622.32 C534.07,625.99 536.49,626.99 545.68,627.18 C550.95,627.29 552.58,627.51 549.73,627.74 C547.07,627.94 545.21,628.53 545.53,629.06 C545.86,629.58 545.42,630.00 544.56,630.00 C543.70,630.00 543.00,630.45 543.00,631.00 C543.00,632.79 539.48,632.05 537.97,629.94 C536.58,627.99 536.38,628.25 534.30,634.69 L 532.10 641.50 L 532.12 629.00 ZM 564.35 625.24 C565.36,624.08 565.87,622.60 565.47,621.96 C564.94,621.09 564.50,621.14 563.78,622.14 C563.11,623.08 563.07,622.88 563.64,621.50 C564.09,620.40 564.47,617.10 564.48,614.17 C564.50,609.37 564.16,608.53 561.16,605.85 C558.81,603.75 558.37,602.96 559.66,603.19 C560.67,603.36 561.83,603.95 562.23,604.50 C562.69,605.12 562.98,605.04 562.98,604.28 C562.99,603.61 561.76,602.39 560.25,601.57 C556.65,599.62 557.79,599.60 562.41,601.53 C567.19,603.53 569.99,608.20 570.00,614.20 C570.00,619.91 568.73,622.88 565.18,625.43 L 562.50 627.36 L 564.35 625.24 ZM 561.34 546.95 C553.18,536.97 546.11,528.06 545.64,527.15 C545.16,526.24 546.19,527.17 547.92,529.20 C550.04,531.70 551.60,532.71 552.68,532.29 C555.36,531.26 560.11,525.72 559.55,524.27 C558.55,521.67 561.70,524.42 566.97,530.75 C569.83,534.19 572.58,537.00 573.09,537.00 C573.60,537.00 574.00,529.00 574.00,518.50 L 574.00 500.00 L 581.51 500.00 L 589.03 500.00 L 588.76 532.25 L 588.50 564.50 L 582.34 564.80 L 576.17 565.09 L 561.34 546.95 ZM 586.93 513.25 C586.88,507.43 586.57,505.17 586.00,506.50 C585.53,507.60 585.08,508.05 585.01,507.50 C584.93,506.95 584.48,507.47 584.00,508.65 C583.53,509.84 583.43,511.86 583.78,513.15 C584.40,515.40 584.45,515.38 585.09,512.50 C585.59,510.28 585.79,511.12 585.88,515.75 C585.95,519.19 586.22,522.00 586.50,522.00 C586.78,522.00 586.97,518.06 586.93,513.25 ZM 604.00 532.59 L 604.00 500.00 L 622.29 500.00 C647.63,500.00 654.81,502.12 663.38,512.13 C667.77,517.26 670.00,524.14 670.00,532.57 C670.00,545.85 664.10,555.36 652.22,561.21 L 645.55 564.50 L 624.77 564.84 L 604.00 565.17 L 604.00 532.59 ZM 644.12 549.93 C654.38,544.73 657.71,532.21 651.70,521.52 C647.96,514.88 643.42,513.04 630.75,513.02 L 620.00 513.00 L 620.00 532.42 C620.00,546.99 620.31,551.97 621.25,552.38 C623.89,553.54 640.51,551.76 644.12,549.93 ZM 682.00 532.50 L 682.00 500.00 L 699.25 500.02 C718.17,500.05 723.64,500.87 729.19,504.53 C741.33,512.50 741.77,532.36 730.01,540.88 L 726.08 543.73 L 733.04 553.99 C736.87,559.63 740.00,564.44 740.00,564.66 C740.00,564.89 736.29,564.95 731.75,564.79 L 723.50 564.50 L 717.72 556.00 L 711.94 547.50 L 705.22 546.93 C701.52,546.62 698.16,546.54 697.75,546.74 C697.34,546.95 697.00,551.14 697.00,556.06 L 697.00 565.00 L 689.50 565.00 L 682.00 565.00 L 682.00 532.50 ZM 720.08 530.23 C724.16,525.67 724.15,520.00 720.08,515.92 C717.23,513.08 716.88,513.00 707.08,513.00 L 697.00 513.00 L 697.00 522.83 C697.00,528.24 697.34,533.01 697.75,533.42 C698.16,533.83 702.70,534.02 707.83,533.84 C716.93,533.51 717.24,533.42 720.08,530.23 ZM 751.00 532.52 L 751.00 500.00 L 776.00 500.00 L 801.00 500.00 L 801.00 506.00 L 801.00 512.00 L 783.45 512.00 L 765.91 512.00 L 766.20 518.75 L 766.50 525.50 L 781.75 525.78 L 797.00 526.05 L 797.00 532.03 L 797.00 538.00 L 781.46 538.00 L 765.91 538.00 L 766.21 545.25 L 766.50 552.50 L 784.30 552.77 L 802.10 553.05 L 801.80 558.77 L 801.50 564.50 L 776.25 564.77 L 751.00 565.03 L 751.00 532.52 ZM 814.00 532.50 L 814.00 500.00 L 821.48 500.00 L 828.97 500.00 L 829.23 526.25 L 829.50 552.50 L 845.75 552.77 L 862.00 553.05 L 862.00 559.02 L 862.00 565.00 L 838.00 565.00 L 814.00 565.00 L 814.00 532.50 ZM 871.00 532.46 L 871.00 499.92 L 878.63 500.21 L 886.25 500.50 L 886.54 526.00 C886.70,540.03 886.87,551.84 886.92,552.25 C886.96,552.66 894.42,553.00 903.50,553.00 L 920.00 553.00 L 920.00 559.00 L 920.00 565.00 L 895.50 565.00 L 871.00 565.00 L 871.00 532.46 ZM 952.00 559.54 L 952.00 554.07 L 966.59 540.82 C974.61,533.53 981.81,526.33 982.59,524.83 C984.60,520.95 984.35,516.35 982.00,514.00 C978.11,510.11 964.81,511.93 962.13,516.73 C961.23,518.34 960.85,518.29 956.83,516.07 C948.28,511.34 948.47,511.67 951.93,507.74 C957.10,501.85 963.82,499.50 975.50,499.50 C984.31,499.50 986.03,499.80 989.96,502.00 C995.38,505.04 998.68,509.68 999.55,515.50 C1000.87,524.32 996.61,531.63 983.23,543.50 C978.27,547.90 974.42,551.84 974.67,552.25 C974.91,552.66 981.17,553.00 988.56,553.00 L 1002.00 553.00 L 1002.00 559.00 L 1002.00 565.00 L 977.00 565.00 L 952.00 565.00 L 952.00 559.54 ZM 1043.92 564.29 C1043.87,563.86 1043.90,560.91 1043.99,557.75 L 1044.14 552.00 L 1026.07 552.00 L 1008.00 552.00 L 1008.00 546.21 L 1008.00 540.42 L 1022.99 520.21 L 1037.98 500.00 L 1046.11 500.00 L 1054.23 500.00 L 1052.44 502.75 C1051.46,504.26 1046.78,510.67 1042.04,517.00 C1037.30,523.33 1031.72,530.86 1029.63,533.75 L 1025.83 539.00 L 1034.91 539.00 L 1044.00 539.00 L 1044.00 533.00 L 1044.00 527.00 L 1051.50 527.00 L 1059.00 527.00 L 1059.00 533.00 L 1059.00 539.00 L 1064.00 539.00 L 1069.00 539.00 L 1069.00 545.50 L 1069.00 552.00 L 1064.05 552.00 L 1059.10 552.00 L 1058.80 558.25 L 1058.50 564.50 L 1051.25 564.79 C1047.26,564.96 1043.96,564.73 1043.92,564.29 ZM 1078.00 532.50 L 1078.00 500.00 L 1085.47 500.00 L 1092.94 500.00 L 1093.22 512.25 L 1093.50 524.50 L 1108.25 524.78 L 1123.00 525.05 L 1123.00 512.53 L 1123.00 500.00 L 1131.00 500.00 L 1139.00 500.00 L 1139.00 530.92 C1139.00,547.92 1138.73,562.55 1138.39,563.42 C1137.92,564.66 1136.21,565.00 1130.39,565.00 L 1123.00 565.00 L 1123.00 551.47 L 1123.00 537.95 L 1108.25 538.22 L 1093.50 538.50 L 1093.22 551.75 L 1092.94 565.00 L 1085.47 565.00 L 1078.00 565.00 L 1078.00 532.50 ZM 542.00 561.56 C542.00,560.22 541.51,558.81 540.91,558.44 C540.23,558.02 540.05,556.19 540.42,553.63 C541.14,548.78 541.57,542.90 541.82,534.25 C541.92,530.81 542.45,528.00 543.00,528.00 C543.63,528.00 544.00,534.67 544.00,546.00 C544.00,557.33 543.63,564.00 543.00,564.00 C542.45,564.00 542.00,562.90 542.00,561.56 ZM 528.00 549.50 C528.00,545.38 528.34,542.01 528.75,542.03 C529.16,542.05 530.44,542.85 531.59,543.82 C533.90,545.75 535.55,551.42 533.58,550.67 C532.92,550.41 532.33,551.29 532.21,552.70 C531.95,555.89 531.23,557.00 529.44,557.00 C528.31,557.00 528.00,555.36 528.00,549.50 ZM 528.00 519.03 L 528.00 509.05 L 530.95 509.64 C533.08,510.07 534.64,509.64 536.58,508.11 C538.06,506.95 540.11,506.00 541.13,506.00 C543.69,506.00 543.48,503.45 540.78,501.56 C539.27,500.50 539.04,500.00 540.05,500.00 C541.60,500.00 554.00,514.16 554.00,515.93 C554.00,516.48 554.90,517.41 556.00,518.00 C557.10,518.59 558.00,519.59 558.00,520.22 C558.00,520.86 556.76,520.18 555.24,518.73 C553.31,516.88 552.05,516.35 551.04,516.98 C550.24,517.47 549.24,517.65 548.81,517.38 C548.38,517.11 548.29,517.59 548.62,518.45 C549.07,519.64 548.52,520.00 546.23,520.00 C542.66,520.00 536.43,522.45 535.31,524.30 C534.39,525.80 529.95,529.00 528.78,529.00 C528.35,529.00 528.00,524.51 528.00,519.03 ZM 489.50 500.91 C486.53,500.55 490.54,500.25 499.42,500.16 C507.62,500.07 514.03,500.30 513.66,500.68 C512.80,501.53 496.11,501.69 489.50,500.91 ZM 717.21 442.94 C718.15,442.40 718.68,441.32 718.38,440.55 C717.73,438.86 721.56,436.49 722.50,438.00 C722.91,438.67 723.86,438.63 725.31,437.91 C726.93,437.09 726.75,437.48 724.59,439.40 C723.00,440.83 721.08,442.00 720.34,442.00 C719.60,442.00 719.00,442.45 719.00,443.00 C719.00,443.55 718.21,443.99 717.25,443.97 C715.61,443.94 715.61,443.88 717.21,442.94 ZM 730.89 433.76 C731.52,432.07 731.08,431.10 728.89,429.25 C727.35,427.96 725.91,427.03 725.70,427.20 C725.48,427.36 724.58,426.90 723.70,426.17 C722.33,425.03 721.47,425.20 717.94,427.31 C715.66,428.67 713.27,430.84 712.62,432.14 C711.68,434.03 710.58,434.53 707.13,434.65 L 702.82 434.79 L 705.85 432.94 C707.52,431.93 710.82,430.12 713.19,428.92 C722.02,424.45 745.88,408.05 757.10,398.75 C787.46,373.56 808.24,340.24 811.66,311.25 L 812.28 306.00 L 804.67 306.00 L 797.07 306.00 L 796.78 316.25 L 796.50 326.50 L 790.00 326.50 L 783.50 326.50 L 783.22 316.25 L 782.93 306.00 L 763.52 306.00 C752.85,306.00 743.92,305.66 743.68,305.25 C743.30,304.61 770.73,261.44 774.08,257.41 C774.89,256.43 777.51,256.00 782.62,256.00 C786.68,256.00 790.00,256.21 790.00,256.47 C790.00,256.73 784.83,264.85 778.50,274.52 C772.17,284.19 767.00,292.30 767.00,292.55 C767.00,292.80 770.60,293.00 775.00,293.00 L 783.00 293.00 L 783.00 286.50 L 783.00 280.00 L 790.00 280.00 L 797.00 280.00 L 797.00 286.54 L 797.00 293.08 L 804.75 292.79 L 812.50 292.50 L 812.76 231.30 L 813.02 170.09 L 809.76 169.57 C766.36,162.57 735.01,151.43 701.63,131.15 C697.87,128.87 694.46,127.00 694.06,127.00 C693.65,127.00 689.53,129.29 684.91,132.09 C674.36,138.47 659.73,145.88 648.30,150.62 C634.77,156.25 617.10,161.96 616.45,160.93 C616.14,160.42 616.25,159.99 616.69,159.98 C617.14,159.98 616.83,159.53 616.00,159.00 C615.17,158.47 611.78,158.02 608.46,158.02 C602.56,158.00 602.42,157.94 602.46,155.30 C602.49,153.47 601.77,152.22 600.25,151.45 C598.20,150.42 598.50,150.21 603.75,149.05 C624.96,144.36 660.75,129.13 682.21,115.66 C688.04,112.00 693.23,109.00 693.73,109.00 C694.24,109.00 700.02,112.23 706.57,116.18 C742.22,137.64 783.41,151.67 819.25,154.57 L 828.00 155.28 L 828.00 231.39 C827.99,314.70 827.85,317.08 822.08,334.74 C811.13,368.25 784.98,399.62 744.92,427.30 C739.65,430.94 734.16,434.37 732.72,434.92 C730.30,435.84 730.16,435.75 730.89,433.76 ZM 686.79 399.25 C686.51,394.99 686.18,362.25 686.06,326.50 C685.90,278.33 685.54,261.21 684.67,260.39 C683.51,259.29 670.86,251.75 651.25,240.45 L 641.00 234.54 L 641.00 207.77 C641.00,193.05 641.14,181.00 641.31,181.00 C641.48,181.00 648.47,182.57 656.86,184.50 C665.24,186.43 672.25,188.00 672.43,188.00 C672.60,188.00 677.37,195.65 683.03,205.00 C688.68,214.35 693.58,222.00 693.91,221.99 C694.40,221.99 718.86,182.27 719.79,179.97 C720.19,178.98 696.33,165.00 694.23,165.00 C693.29,165.00 686.98,168.19 680.20,172.10 L 667.87 179.19 L 659.19 177.04 C654.41,175.86 649.85,174.67 649.06,174.40 C647.46,173.86 649.41,172.62 676.29,157.07 L 694.00 146.81 L 705.75 153.58 C712.21,157.30 722.56,163.25 728.75,166.79 C734.94,170.33 740.00,173.70 740.00,174.28 C740.00,174.85 735.88,182.11 730.85,190.41 C725.82,198.71 715.63,215.53 708.21,227.79 C700.79,240.04 694.28,249.93 693.74,249.75 C692.85,249.45 678.57,226.49 664.09,202.08 C661.01,196.90 657.93,192.48 657.23,192.24 C656.22,191.91 656.01,195.45 656.23,209.11 L 656.50 226.41 L 666.30 232.04 L 676.11 237.66 L 684.76 252.33 C689.51,260.40 693.65,266.99 693.95,266.98 C694.25,266.98 698.33,260.50 703.00,252.59 L 711.50 238.21 L 719.50 233.44 C723.90,230.82 728.56,228.03 729.86,227.24 C732.13,225.87 732.20,225.47 731.75,216.02 C731.49,210.53 731.72,205.41 732.28,204.37 C736.30,196.75 745.40,182.00 746.08,182.00 C746.87,182.00 746.66,234.78 745.87,235.36 C745.67,235.51 735.49,241.43 723.25,248.51 L 701.00 261.40 L 701.00 297.62 C701.00,317.54 700.73,334.54 700.40,335.39 C699.88,336.76 699.63,336.77 698.33,335.48 C697.23,334.38 696.37,334.27 694.93,335.04 C692.64,336.26 692.55,337.00 694.36,339.48 C696.11,341.87 699.00,342.33 699.00,340.21 C699.00,337.20 700.85,340.41 701.18,344.00 C701.49,347.43 701.59,347.50 706.00,347.50 L 710.50 347.50 L 710.80 341.25 L 711.10 335.00 L 727.55 335.00 L 744.00 335.00 L 744.00 342.00 L 744.00 349.00 L 733.50 349.00 L 723.00 349.00 L 723.00 354.98 C723.00,360.58 722.84,361.00 720.41,361.61 C718.99,361.97 714.04,361.95 709.41,361.58 C702.29,361.00 701.00,361.13 701.00,362.40 C701.00,363.42 700.12,363.84 698.27,363.70 C695.18,363.47 694.44,365.20 695.41,370.38 C695.89,372.91 696.54,373.61 698.63,373.78 C700.97,373.97 701.10,373.82 699.87,372.31 C698.94,371.16 698.90,370.86 699.75,371.37 C700.44,371.78 701.00,371.64 701.00,371.06 C701.00,370.38 704.92,370.00 712.00,370.00 L 723.00 370.00 L 723.00 376.00 C723.00,382.02 722.28,383.09 719.82,380.73 C718.95,379.89 716.47,379.60 712.50,379.86 C708.21,380.14 707.07,380.48 708.50,381.06 C709.94,381.64 709.18,381.88 705.75,381.93 L 701.00 382.00 L 701.00 391.99 C701.00,401.50 700.90,401.97 698.95,401.67 C697.83,401.50 696.03,400.62 694.97,399.71 C693.05,398.06 690.00,398.34 690.00,400.17 C690.00,400.69 689.55,400.84 689.00,400.50 C688.42,400.14 688.00,401.13 688.00,402.87 C688.00,405.18 688.52,405.96 690.25,406.29 C692.29,406.69 692.25,406.74 689.90,406.86 C687.35,407.00 687.29,406.84 686.79,399.25 ZM 689.90 383.00 C690.07,385.32 690.19,385.25 691.59,382.01 C692.80,379.22 692.87,378.02 691.92,376.01 C691.13,374.32 690.58,373.95 690.25,374.86 C689.83,376.01 689.62,376.01 688.89,374.86 C688.37,374.04 688.08,376.45 688.16,381.00 C688.26,387.31 688.40,387.86 689.00,384.50 C689.50,381.71 689.77,381.26 689.90,383.00 ZM 718.81 351.23 C719.01,349.88 718.43,348.95 717.12,348.54 C716.03,348.19 714.93,347.14 714.68,346.20 C714.37,345.02 714.15,345.27 713.97,347.00 C713.79,348.66 713.46,347.98 713.00,345.00 L 712.30 340.50 L 712.15 344.75 C712.06,347.35 711.52,349.03 710.75,349.08 C709.76,349.14 709.76,349.26 710.76,349.66 C711.45,349.94 711.76,350.58 711.45,351.09 C710.37,352.82 712.11,353.97 715.30,353.63 C717.62,353.38 718.58,352.72 718.81,351.23 ZM 711.15 389.27 C711.29,382.85 711.34,382.73 712.00,387.00 C712.54,390.50 712.74,390.84 712.87,388.50 C712.99,386.23 713.26,385.86 713.96,386.97 C714.76,388.23 714.99,388.20 715.55,386.72 C716.05,385.42 717.46,384.98 721.36,384.93 C725.15,384.88 725.98,384.63 724.50,384.00 C723.12,383.40 724.65,383.12 729.50,383.06 C733.35,383.01 738.21,382.70 740.30,382.35 L 744.10 381.72 L 743.80 388.61 L 743.50 395.50 L 727.25 395.77 L 711.00 396.05 L 711.15 389.27 ZM 730.00 365.56 L 730.00 359.00 L 733.55 359.00 L 737.10 359.00 L 736.80 365.25 C736.50,371.50 736.50,371.50 733.25,371.81 L 730.00 372.13 L 730.00 365.56 ZM 711.00 320.90 L 711.00 314.80 L 722.75 297.34 C738.66,273.70 737.60,275.62 736.45,272.32 C735.61,269.92 734.84,269.45 731.33,269.20 C727.96,268.95 726.89,269.32 725.59,271.17 C724.72,272.42 724.00,274.24 724.00,275.22 C724.00,276.74 723.06,277.00 717.50,277.00 L 711.00 277.00 L 711.00 273.97 C711.00,270.41 713.35,264.37 715.79,261.68 C720.59,256.37 734.30,254.02 740.80,257.40 C746.71,260.48 751.00,267.54 751.00,274.20 C751.00,278.03 749.72,280.43 739.56,295.65 C733.27,305.08 728.40,313.06 728.73,313.39 C729.06,313.73 739.83,314.00 752.67,314.00 L 776.00 314.00 L 776.00 318.92 C776.00,327.67 778.76,327.00 742.89,327.00 L 711.00 327.00 L 711.00 320.90 ZM 575.50 169.00 C575.16,168.45 575.43,168.00 576.11,168.00 C576.78,168.00 577.04,167.70 576.67,167.34 C576.00,166.67 578.97,164.13 580.15,164.37 C580.50,164.44 581.74,163.64 582.90,162.60 C584.17,161.44 585.00,161.17 585.00,161.90 C585.00,162.57 585.43,162.85 585.96,162.53 C587.37,161.66 586.05,159.02 584.14,158.90 C583.24,158.84 584.08,158.40 586.00,157.91 C590.11,156.86 597.14,158.38 601.20,161.19 C603.81,163.00 604.70,163.01 611.50,161.31 C613.40,160.84 613.39,160.89 611.38,162.38 C610.21,163.23 603.68,165.03 596.88,166.37 C579.79,169.73 576.22,170.17 575.50,169.00 ZM 562.00 155.90 C562.00,155.57 565.71,155.00 570.25,154.63 C574.79,154.27 580.75,153.75 583.50,153.48 C586.25,153.21 587.93,153.26 587.24,153.58 C586.55,153.91 586.24,154.58 586.55,155.09 C587.26,156.23 586.02,156.35 572.75,156.43 C566.84,156.47 562.00,156.23 562.00,155.90 Z" fill="rgb(207,178,103)"/>
</g>
</svg>